<svg xmlns="http://www.w3.org/2000/svg" width="363.3" height="35" viewBox="0 0 363.3 35"><rect class="svg__rect" x="0" y="0" width="88.08" height="35" fill="#5D9741"/><rect class="svg__rect" x="86.08" y="0" width="277.22" height="35" fill="#C1D72F"/><path class="svg__text" d="M15.70 22L14.22 22L14.22 13.47L17.48 13.47Q18.91 13.47 19.75 14.21Q20.59 14.96 20.59 16.18L20.59 16.18Q20.59 17.44 19.77 18.13Q18.95 18.83 17.46 18.83L17.46 18.83L15.70 18.83L15.70 22ZM15.70 14.66L15.70 17.64L17.48 17.64Q18.27 17.64 18.69 17.27Q19.10 16.90 19.10 16.19L19.10 16.19Q19.10 15.50 18.68 15.09Q18.26 14.68 17.52 14.66L17.52 14.66L15.70 14.66ZM26.91 18.86L24.05 13.47L25.70 13.47L27.66 17.51L29.62 13.47L31.26 13.47L28.40 18.86L28.40 22L26.91 22L26.91 18.86ZM36.86 14.66L34.22 14.66L34.22 13.47L40.99 13.47L40.99 14.66L38.33 14.66L38.33 22L36.86 22L36.86 14.66ZM46.23 22L44.74 22L44.74 13.47L46.23 13.47L46.23 17.02L50.04 17.02L50.04 13.47L51.52 13.47L51.52 22L50.04 22L50.04 18.21L46.23 18.21L46.23 22ZM55.99 18.00L55.99 18.00L55.99 17.52Q55.99 16.28 56.43 15.32Q56.87 14.37 57.68 13.86Q58.48 13.35 59.53 13.35Q60.57 13.35 61.38 13.85Q62.18 14.35 62.62 15.29Q63.06 16.23 63.07 17.48L63.07 17.48L63.07 17.96Q63.07 19.21 62.63 20.16Q62.20 21.10 61.39 21.61Q60.59 22.12 59.54 22.12L59.54 22.12Q58.50 22.12 57.69 21.61Q56.88 21.10 56.44 20.17Q55.99 19.23 55.99 18.00ZM57.47 17.46L57.47 17.96Q57.47 19.36 58.02 20.13Q58.57 20.90 59.54 20.90L59.54 20.90Q60.52 20.90 61.05 20.15Q61.58 19.40 61.58 17.96L61.58 17.96L61.58 17.51Q61.58 16.09 61.05 15.34Q60.51 14.58 59.53 14.58L59.53 14.58Q58.57 14.58 58.02 15.33Q57.48 16.09 57.47 17.46L57.47 17.46ZM69.01 22L67.53 22L67.53 13.47L69.01 13.47L72.83 19.54L72.83 13.47L74.30 13.47L74.30 22L72.82 22L69.01 15.95L69.01 22Z" fill="#FFFFFF"/><path class="svg__text" d="M104.24 22L100.27 22L100.27 13.60L104.24 13.60Q105.62 13.60 106.69 14.12Q107.76 14.63 108.35 15.58Q108.93 16.53 108.93 17.80L108.93 17.80Q108.93 19.07 108.35 20.02Q107.76 20.97 106.69 21.48Q105.62 22 104.24 22L104.24 22ZM102.65 15.50L102.65 20.10L104.15 20.10Q105.22 20.10 105.88 19.49Q106.53 18.88 106.53 17.80L106.53 17.80Q106.53 16.72 105.88 16.11Q105.22 15.50 104.15 15.50L104.15 15.50L102.65 15.50ZM112.58 20.93L112.58 20.93L113.88 19.40Q114.55 20.27 115.32 20.27L115.32 20.27Q115.33 20.27 115.33 20.27L115.33 20.27Q115.85 20.27 116.12 19.96Q116.39 19.65 116.39 19.05L116.39 19.05L116.39 15.44L113.49 15.44L113.49 13.60L118.74 13.60L118.74 18.91Q118.74 20.54 117.92 21.36Q117.10 22.17 115.50 22.17L115.50 22.17Q114.58 22.17 113.82 21.85Q113.06 21.53 112.58 20.93ZM125.25 22L122.82 22L126.53 13.60L128.87 13.60L132.59 22L130.12 22L129.46 20.37L125.91 20.37L125.25 22ZM127.68 15.93L126.60 18.61L128.76 18.61L127.68 15.93ZM139.07 22L136.74 22L136.74 13.60L138.70 13.60L142.41 18.07L142.41 13.60L144.73 13.60L144.73 22L142.78 22L139.07 17.52L139.07 22ZM149.47 17.80L149.47 17.80Q149.47 16.54 150.07 15.54Q150.66 14.55 151.73 13.99Q152.80 13.43 154.14 13.43L154.14 13.43Q155.32 13.43 156.26 13.83Q157.20 14.22 157.82 14.97L157.82 14.97L156.31 16.33Q155.46 15.40 154.29 15.40L154.29 15.40Q154.27 15.40 154.27 15.40L154.27 15.40Q153.19 15.40 152.53 16.06Q151.87 16.71 151.87 17.80L151.87 17.80Q151.87 18.50 152.17 19.04Q152.47 19.59 153.01 19.89Q153.55 20.20 154.24 20.20L154.24 20.20Q154.93 20.20 155.53 19.93L155.53 19.93L155.53 17.62L157.63 17.62L157.63 21.10Q156.90 21.61 155.97 21.89Q155.04 22.17 154.10 22.17L154.10 22.17Q152.78 22.17 151.72 21.61Q150.66 21.05 150.07 20.05Q149.47 19.06 149.47 17.80ZM162.19 17.80L162.19 17.80Q162.19 16.55 162.79 15.55Q163.40 14.56 164.46 14.00Q165.52 13.43 166.85 13.43L166.85 13.43Q168.18 13.43 169.25 14.00Q170.31 14.56 170.92 15.55Q171.52 16.55 171.52 17.80L171.52 17.80Q171.52 19.05 170.92 20.04Q170.31 21.04 169.25 21.60Q168.19 22.17 166.85 22.17L166.85 22.17Q165.52 22.17 164.46 21.60Q163.40 21.04 162.79 20.04Q162.19 19.05 162.19 17.80ZM164.59 17.80L164.59 17.80Q164.59 18.51 164.89 19.05Q165.19 19.60 165.71 19.90Q166.22 20.20 166.85 20.20L166.85 20.20Q167.49 20.20 168.01 19.90Q168.52 19.60 168.82 19.05Q169.12 18.51 169.12 17.80L169.12 17.80Q169.12 17.09 168.82 16.54Q168.52 16 168.01 15.70Q167.49 15.40 166.85 15.40L166.85 15.40Q166.22 15.40 165.70 15.70Q165.19 16 164.89 16.54Q164.59 17.09 164.59 17.80ZM185.60 22L183.22 22L183.22 13.60L187.07 13.60Q188.21 13.60 189.05 13.98Q189.89 14.35 190.34 15.06Q190.80 15.76 190.80 16.71L190.80 16.71Q190.80 17.62 190.37 18.30Q189.95 18.98 189.15 19.36L189.15 19.36L190.97 22L188.42 22L186.90 19.77L185.60 19.77L185.60 22ZM185.60 15.47L185.60 17.93L186.92 17.93Q187.65 17.93 188.03 17.61Q188.40 17.29 188.40 16.71L188.40 16.71Q188.40 16.12 188.03 15.79Q187.65 15.47 186.92 15.47L186.92 15.47L185.60 15.47ZM202.33 22L195.59 22L195.59 13.60L202.18 13.60L202.18 15.44L197.94 15.44L197.94 16.85L201.68 16.85L201.68 18.63L197.94 18.63L197.94 20.17L202.33 20.17L202.33 22ZM206.55 21.24L206.55 21.24L207.33 19.49Q207.89 19.86 208.64 20.09Q209.38 20.32 210.10 20.32L210.10 20.32Q211.47 20.32 211.47 19.64L211.47 19.64Q211.47 19.28 211.08 19.11Q210.69 18.93 209.83 18.74L209.83 18.74Q208.88 18.53 208.24 18.30Q207.61 18.06 207.15 17.55Q206.70 17.03 206.70 16.16L206.70 16.16Q206.70 15.39 207.12 14.77Q207.54 14.15 208.37 13.79Q209.21 13.43 210.41 13.43L210.41 13.43Q211.24 13.43 212.04 13.62Q212.85 13.80 213.47 14.17L213.47 14.17L212.73 15.93Q211.53 15.28 210.40 15.28L210.40 15.28Q209.69 15.28 209.37 15.49Q209.05 15.70 209.05 16.04L209.05 16.04Q209.05 16.37 209.43 16.54Q209.81 16.71 210.66 16.89L210.66 16.89Q211.63 17.10 212.26 17.33Q212.89 17.56 213.35 18.07Q213.81 18.58 213.81 19.46L213.81 19.46Q213.81 20.21 213.39 20.83Q212.97 21.44 212.13 21.80Q211.29 22.17 210.09 22.17L210.09 22.17Q209.07 22.17 208.11 21.92Q207.15 21.67 206.55 21.24ZM220.18 15.48L217.60 15.48L217.60 13.60L225.12 13.60L225.12 15.48L222.55 15.48L222.55 22L220.18 22L220.18 15.48ZM238.84 22L236.46 22L236.46 13.60L243.05 13.60L243.05 15.44L238.84 15.44L238.84 17.28L242.55 17.28L242.55 19.12L238.84 19.12L238.84 22ZM250.03 22L247.65 22L247.65 13.60L251.49 13.60Q252.64 13.60 253.47 13.98Q254.31 14.35 254.77 15.06Q255.22 15.76 255.22 16.71L255.22 16.71Q255.22 17.62 254.80 18.30Q254.37 18.98 253.58 19.36L253.58 19.36L255.39 22L252.85 22L251.32 19.77L250.03 19.77L250.03 22ZM250.03 15.47L250.03 17.93L251.35 17.93Q252.08 17.93 252.45 17.61Q252.82 17.29 252.82 16.71L252.82 16.71Q252.82 16.12 252.45 15.79Q252.08 15.47 251.35 15.47L251.35 15.47L250.03 15.47ZM261.43 22L259.00 22L262.71 13.60L265.06 13.60L268.77 22L266.31 22L265.64 20.37L262.09 20.37L261.43 22ZM263.87 15.93L262.78 18.61L264.95 18.61L263.87 15.93ZM275.12 22L272.93 22L272.93 13.60L274.88 13.60L277.84 18.45L280.72 13.60L282.67 13.60L282.69 22L280.51 22L280.49 17.55L278.33 21.17L277.27 21.17L275.12 17.67L275.12 22ZM294.60 22L287.86 22L287.86 13.60L294.45 13.60L294.45 15.44L290.21 15.44L290.21 16.85L293.94 16.85L293.94 18.63L290.21 18.63L290.21 20.17L294.60 20.17L294.60 22ZM301.48 22L298.76 13.60L301.21 13.60L302.90 18.96L304.67 13.60L306.86 13.60L308.55 19.01L310.31 13.60L312.58 13.60L309.86 22L307.31 22L305.71 16.89L304.03 22L301.48 22ZM316.67 17.80L316.67 17.80Q316.67 16.55 317.27 15.55Q317.87 14.56 318.94 14.00Q320.00 13.43 321.33 13.43L321.33 13.43Q322.66 13.43 323.72 14.00Q324.79 14.56 325.39 15.55Q326.00 16.55 326.00 17.80L326.00 17.80Q326.00 19.05 325.39 20.04Q324.79 21.04 323.73 21.60Q322.67 22.17 321.33 22.17L321.33 22.17Q320.00 22.17 318.94 21.60Q317.87 21.04 317.27 20.04Q316.67 19.05 316.67 17.80ZM319.06 17.80L319.06 17.80Q319.06 18.51 319.36 19.05Q319.67 19.60 320.18 19.90Q320.70 20.20 321.33 20.20L321.33 20.20Q321.97 20.20 322.48 19.90Q323.00 19.60 323.30 19.05Q323.60 18.51 323.60 17.80L323.60 17.80Q323.60 17.09 323.30 16.54Q323.00 16 322.48 15.70Q321.97 15.40 321.33 15.40L321.33 15.40Q320.69 15.40 320.18 15.70Q319.67 16 319.36 16.54Q319.06 17.09 319.06 17.80ZM333.11 22L330.73 22L330.73 13.60L334.57 13.60Q335.72 13.60 336.55 13.98Q337.39 14.35 337.85 15.06Q338.31 15.76 338.31 16.71L338.31 16.71Q338.31 17.62 337.88 18.30Q337.45 18.98 336.66 19.36L336.66 19.36L338.47 22L335.93 22L334.40 19.77L333.11 19.77L333.11 22ZM333.11 15.47L333.11 17.93L334.43 17.93Q335.16 17.93 335.53 17.61Q335.90 17.29 335.90 16.71L335.90 16.71Q335.90 16.12 335.53 15.79Q335.16 15.47 334.43 15.47L334.43 15.47L333.11 15.47ZM345.45 22L343.09 22L343.09 13.60L345.45 13.60L345.45 17.09L348.70 13.60L351.31 13.60L347.89 17.32L351.49 22L348.73 22L346.33 18.95L345.45 19.90L345.45 22Z" fill="#FFFFFF" x="99.08"/></svg>